<mxfile host="app.diagrams.net" modified="2022-10-23T15:31:55.110Z" agent="5.0 (X11)" etag="XQw-Q9ndS7hti8nkU1Va" version="16.6.4" type="github">
  <diagram name="Page-1" id="10a91c8b-09ff-31b1-d368-03940ed4cc9e">
    <mxGraphModel dx="1673" dy="933" grid="1" gridSize="10" guides="1" tooltips="1" connect="1" arrows="1" fold="1" page="1" pageScale="1" pageWidth="1100" pageHeight="850" background="none" math="0" shadow="0">
      <root>
        <mxCell id="0" />
        <mxCell id="1" parent="0" />
        <mxCell id="kkSLmu_Uq5GEiado8GIk-3" style="edgeStyle=none;rounded=0;orthogonalLoop=1;jettySize=auto;html=1;entryX=0.5;entryY=0;entryDx=0;entryDy=0;" edge="1" parent="1" source="62893188c0fa7362-1" target="62893188c0fa7362-2">
          <mxGeometry relative="1" as="geometry" />
        </mxCell>
        <mxCell id="kkSLmu_Uq5GEiado8GIk-4" style="edgeStyle=none;rounded=0;orthogonalLoop=1;jettySize=auto;html=1;entryX=0.5;entryY=0;entryDx=0;entryDy=0;" edge="1" parent="1" source="62893188c0fa7362-1" target="62893188c0fa7362-3">
          <mxGeometry relative="1" as="geometry" />
        </mxCell>
        <mxCell id="62893188c0fa7362-1" value="Dorama_Name" style="whiteSpace=wrap;html=1;rounded=1;shadow=1;labelBackgroundColor=none;strokeWidth=1;fontFamily=Verdana;fontSize=12;align=center;arcSize=30;" parent="1" vertex="1">
          <mxGeometry x="550" y="40" width="120" height="70" as="geometry" />
        </mxCell>
        <mxCell id="kkSLmu_Uq5GEiado8GIk-17" style="edgeStyle=none;rounded=0;orthogonalLoop=1;jettySize=auto;html=1;entryX=0.5;entryY=0;entryDx=0;entryDy=0;" edge="1" parent="1" source="62893188c0fa7362-2" target="kkSLmu_Uq5GEiado8GIk-13">
          <mxGeometry relative="1" as="geometry" />
        </mxCell>
        <mxCell id="kkSLmu_Uq5GEiado8GIk-18" style="edgeStyle=none;rounded=0;orthogonalLoop=1;jettySize=auto;html=1;entryX=0.5;entryY=0;entryDx=0;entryDy=0;" edge="1" parent="1" source="62893188c0fa7362-2" target="kkSLmu_Uq5GEiado8GIk-14">
          <mxGeometry relative="1" as="geometry" />
        </mxCell>
        <mxCell id="kkSLmu_Uq5GEiado8GIk-19" style="edgeStyle=none;rounded=0;orthogonalLoop=1;jettySize=auto;html=1;entryX=0.5;entryY=0;entryDx=0;entryDy=0;" edge="1" parent="1" source="62893188c0fa7362-2" target="kkSLmu_Uq5GEiado8GIk-15">
          <mxGeometry relative="1" as="geometry" />
        </mxCell>
        <mxCell id="kkSLmu_Uq5GEiado8GIk-20" style="edgeStyle=none;rounded=0;orthogonalLoop=1;jettySize=auto;html=1;entryX=0.5;entryY=0;entryDx=0;entryDy=0;" edge="1" parent="1" source="62893188c0fa7362-2" target="kkSLmu_Uq5GEiado8GIk-16">
          <mxGeometry relative="1" as="geometry" />
        </mxCell>
        <mxCell id="62893188c0fa7362-2" value="sub" style="whiteSpace=wrap;html=1;rounded=1;shadow=1;labelBackgroundColor=none;strokeWidth=1;fontFamily=Verdana;fontSize=12;align=center;" parent="1" vertex="1">
          <mxGeometry x="400" y="160" width="80" height="60" as="geometry" />
        </mxCell>
        <mxCell id="kkSLmu_Uq5GEiado8GIk-9" style="edgeStyle=none;rounded=0;orthogonalLoop=1;jettySize=auto;html=1;entryX=0.5;entryY=0;entryDx=0;entryDy=0;" edge="1" parent="1" source="62893188c0fa7362-3" target="kkSLmu_Uq5GEiado8GIk-5">
          <mxGeometry relative="1" as="geometry" />
        </mxCell>
        <mxCell id="kkSLmu_Uq5GEiado8GIk-10" style="edgeStyle=none;rounded=0;orthogonalLoop=1;jettySize=auto;html=1;entryX=0.5;entryY=0;entryDx=0;entryDy=0;" edge="1" parent="1" source="62893188c0fa7362-3" target="kkSLmu_Uq5GEiado8GIk-6">
          <mxGeometry relative="1" as="geometry" />
        </mxCell>
        <mxCell id="kkSLmu_Uq5GEiado8GIk-11" style="edgeStyle=none;rounded=0;orthogonalLoop=1;jettySize=auto;html=1;entryX=0.5;entryY=0;entryDx=0;entryDy=0;" edge="1" parent="1" source="62893188c0fa7362-3" target="kkSLmu_Uq5GEiado8GIk-7">
          <mxGeometry relative="1" as="geometry" />
        </mxCell>
        <mxCell id="kkSLmu_Uq5GEiado8GIk-12" style="edgeStyle=none;rounded=0;orthogonalLoop=1;jettySize=auto;html=1;entryX=0.5;entryY=0;entryDx=0;entryDy=0;" edge="1" parent="1" source="62893188c0fa7362-3" target="kkSLmu_Uq5GEiado8GIk-8">
          <mxGeometry relative="1" as="geometry" />
        </mxCell>
        <mxCell id="62893188c0fa7362-3" value="voise" style="whiteSpace=wrap;html=1;rounded=1;shadow=1;labelBackgroundColor=none;strokeWidth=1;fontFamily=Verdana;fontSize=12;align=center;" parent="1" vertex="1">
          <mxGeometry x="790" y="160" width="80" height="60" as="geometry" />
        </mxCell>
        <mxCell id="62893188c0fa7362-21" value="trailer" style="whiteSpace=wrap;html=1;rounded=0;shadow=1;labelBackgroundColor=none;strokeWidth=2;fontFamily=Verdana;fontSize=12;align=center;" parent="1" vertex="1">
          <mxGeometry x="670" y="360" width="70" height="50" as="geometry" />
        </mxCell>
        <mxCell id="kkSLmu_Uq5GEiado8GIk-21" style="edgeStyle=none;rounded=0;orthogonalLoop=1;jettySize=auto;html=1;entryX=0;entryY=0.75;entryDx=0;entryDy=0;" edge="1" parent="1" source="kkSLmu_Uq5GEiado8GIk-5" target="kkSLmu_Uq5GEiado8GIk-25">
          <mxGeometry relative="1" as="geometry">
            <mxPoint x="670" y="700" as="targetPoint" />
          </mxGeometry>
        </mxCell>
        <mxCell id="kkSLmu_Uq5GEiado8GIk-5" value="s1" style="whiteSpace=wrap;html=1;rounded=1;shadow=1;labelBackgroundColor=none;strokeWidth=1;fontFamily=Verdana;fontSize=12;align=center;" vertex="1" parent="1">
          <mxGeometry x="630" y="260" width="80" height="60" as="geometry" />
        </mxCell>
        <mxCell id="kkSLmu_Uq5GEiado8GIk-41" style="edgeStyle=none;rounded=0;orthogonalLoop=1;jettySize=auto;html=1;entryX=0;entryY=0.5;entryDx=0;entryDy=0;" edge="1" parent="1" source="kkSLmu_Uq5GEiado8GIk-6" target="kkSLmu_Uq5GEiado8GIk-30">
          <mxGeometry relative="1" as="geometry" />
        </mxCell>
        <mxCell id="kkSLmu_Uq5GEiado8GIk-6" value="s2" style="whiteSpace=wrap;html=1;rounded=1;shadow=1;labelBackgroundColor=none;strokeWidth=1;fontFamily=Verdana;fontSize=12;align=center;" vertex="1" parent="1">
          <mxGeometry x="740" y="260" width="80" height="60" as="geometry" />
        </mxCell>
        <mxCell id="kkSLmu_Uq5GEiado8GIk-42" style="edgeStyle=none;rounded=0;orthogonalLoop=1;jettySize=auto;html=1;entryX=0;entryY=1;entryDx=0;entryDy=0;" edge="1" parent="1" source="kkSLmu_Uq5GEiado8GIk-7" target="kkSLmu_Uq5GEiado8GIk-35">
          <mxGeometry relative="1" as="geometry" />
        </mxCell>
        <mxCell id="kkSLmu_Uq5GEiado8GIk-7" value="s3" style="whiteSpace=wrap;html=1;rounded=1;shadow=1;labelBackgroundColor=none;strokeWidth=1;fontFamily=Verdana;fontSize=12;align=center;" vertex="1" parent="1">
          <mxGeometry x="850" y="260" width="80" height="60" as="geometry" />
        </mxCell>
        <mxCell id="kkSLmu_Uq5GEiado8GIk-43" style="edgeStyle=none;rounded=0;orthogonalLoop=1;jettySize=auto;html=1;entryX=0;entryY=0.75;entryDx=0;entryDy=0;" edge="1" parent="1" source="kkSLmu_Uq5GEiado8GIk-8" target="kkSLmu_Uq5GEiado8GIk-40">
          <mxGeometry relative="1" as="geometry">
            <mxPoint x="1000" y="700" as="targetPoint" />
          </mxGeometry>
        </mxCell>
        <mxCell id="kkSLmu_Uq5GEiado8GIk-8" value="s10" style="whiteSpace=wrap;html=1;rounded=1;shadow=1;labelBackgroundColor=none;strokeWidth=1;fontFamily=Verdana;fontSize=12;align=center;" vertex="1" parent="1">
          <mxGeometry x="960" y="260" width="80" height="60" as="geometry" />
        </mxCell>
        <mxCell id="kkSLmu_Uq5GEiado8GIk-64" style="edgeStyle=none;rounded=0;orthogonalLoop=1;jettySize=auto;html=1;entryX=0;entryY=0.5;entryDx=0;entryDy=0;" edge="1" parent="1" source="kkSLmu_Uq5GEiado8GIk-13" target="kkSLmu_Uq5GEiado8GIk-48">
          <mxGeometry relative="1" as="geometry" />
        </mxCell>
        <mxCell id="kkSLmu_Uq5GEiado8GIk-13" value="s1" style="whiteSpace=wrap;html=1;rounded=1;shadow=1;labelBackgroundColor=none;strokeWidth=1;fontFamily=Verdana;fontSize=12;align=center;" vertex="1" parent="1">
          <mxGeometry x="140" y="260" width="80" height="60" as="geometry" />
        </mxCell>
        <mxCell id="kkSLmu_Uq5GEiado8GIk-65" style="edgeStyle=none;rounded=0;orthogonalLoop=1;jettySize=auto;html=1;entryX=0;entryY=0.5;entryDx=0;entryDy=0;" edge="1" parent="1" source="kkSLmu_Uq5GEiado8GIk-14" target="kkSLmu_Uq5GEiado8GIk-53">
          <mxGeometry relative="1" as="geometry" />
        </mxCell>
        <mxCell id="kkSLmu_Uq5GEiado8GIk-14" value="s2" style="whiteSpace=wrap;html=1;rounded=1;shadow=1;labelBackgroundColor=none;strokeWidth=1;fontFamily=Verdana;fontSize=12;align=center;" vertex="1" parent="1">
          <mxGeometry x="250" y="260" width="80" height="60" as="geometry" />
        </mxCell>
        <mxCell id="kkSLmu_Uq5GEiado8GIk-66" style="edgeStyle=none;rounded=0;orthogonalLoop=1;jettySize=auto;html=1;entryX=0;entryY=0.5;entryDx=0;entryDy=0;" edge="1" parent="1" source="kkSLmu_Uq5GEiado8GIk-15" target="kkSLmu_Uq5GEiado8GIk-58">
          <mxGeometry relative="1" as="geometry" />
        </mxCell>
        <mxCell id="kkSLmu_Uq5GEiado8GIk-15" value="s3" style="whiteSpace=wrap;html=1;rounded=1;shadow=1;labelBackgroundColor=none;strokeWidth=1;fontFamily=Verdana;fontSize=12;align=center;" vertex="1" parent="1">
          <mxGeometry x="360" y="260" width="80" height="60" as="geometry" />
        </mxCell>
        <mxCell id="kkSLmu_Uq5GEiado8GIk-16" value="s10" style="whiteSpace=wrap;html=1;rounded=1;shadow=1;labelBackgroundColor=none;strokeWidth=1;fontFamily=Verdana;fontSize=12;align=center;" vertex="1" parent="1">
          <mxGeometry x="470" y="260" width="80" height="60" as="geometry" />
        </mxCell>
        <mxCell id="kkSLmu_Uq5GEiado8GIk-22" value="e1" style="whiteSpace=wrap;html=1;rounded=0;shadow=1;labelBackgroundColor=none;strokeWidth=2;fontFamily=Verdana;fontSize=12;align=center;" vertex="1" parent="1">
          <mxGeometry x="670" y="430" width="70" height="50" as="geometry" />
        </mxCell>
        <mxCell id="kkSLmu_Uq5GEiado8GIk-23" value="e2" style="whiteSpace=wrap;html=1;rounded=0;shadow=1;labelBackgroundColor=none;strokeWidth=2;fontFamily=Verdana;fontSize=12;align=center;" vertex="1" parent="1">
          <mxGeometry x="670" y="500" width="70" height="50" as="geometry" />
        </mxCell>
        <mxCell id="kkSLmu_Uq5GEiado8GIk-24" value="..." style="whiteSpace=wrap;html=1;rounded=0;shadow=1;labelBackgroundColor=none;strokeWidth=2;fontFamily=Verdana;fontSize=12;align=center;" vertex="1" parent="1">
          <mxGeometry x="670" y="570" width="70" height="50" as="geometry" />
        </mxCell>
        <mxCell id="kkSLmu_Uq5GEiado8GIk-25" value="e18" style="whiteSpace=wrap;html=1;rounded=0;shadow=1;labelBackgroundColor=none;strokeWidth=2;fontFamily=Verdana;fontSize=12;align=center;" vertex="1" parent="1">
          <mxGeometry x="670" y="640" width="70" height="50" as="geometry" />
        </mxCell>
        <mxCell id="kkSLmu_Uq5GEiado8GIk-26" value="trailer" style="whiteSpace=wrap;html=1;rounded=0;shadow=1;labelBackgroundColor=none;strokeWidth=2;fontFamily=Verdana;fontSize=12;align=center;" vertex="1" parent="1">
          <mxGeometry x="780" y="360" width="70" height="50" as="geometry" />
        </mxCell>
        <mxCell id="kkSLmu_Uq5GEiado8GIk-27" value="e1" style="whiteSpace=wrap;html=1;rounded=0;shadow=1;labelBackgroundColor=none;strokeWidth=2;fontFamily=Verdana;fontSize=12;align=center;" vertex="1" parent="1">
          <mxGeometry x="780" y="430" width="70" height="50" as="geometry" />
        </mxCell>
        <mxCell id="kkSLmu_Uq5GEiado8GIk-28" value="e2" style="whiteSpace=wrap;html=1;rounded=0;shadow=1;labelBackgroundColor=none;strokeWidth=2;fontFamily=Verdana;fontSize=12;align=center;" vertex="1" parent="1">
          <mxGeometry x="780" y="500" width="70" height="50" as="geometry" />
        </mxCell>
        <mxCell id="kkSLmu_Uq5GEiado8GIk-29" value="..." style="whiteSpace=wrap;html=1;rounded=0;shadow=1;labelBackgroundColor=none;strokeWidth=2;fontFamily=Verdana;fontSize=12;align=center;" vertex="1" parent="1">
          <mxGeometry x="780" y="570" width="70" height="50" as="geometry" />
        </mxCell>
        <mxCell id="kkSLmu_Uq5GEiado8GIk-30" value="e18" style="whiteSpace=wrap;html=1;rounded=0;shadow=1;labelBackgroundColor=none;strokeWidth=2;fontFamily=Verdana;fontSize=12;align=center;" vertex="1" parent="1">
          <mxGeometry x="780" y="640" width="70" height="50" as="geometry" />
        </mxCell>
        <mxCell id="kkSLmu_Uq5GEiado8GIk-31" value="trailer" style="whiteSpace=wrap;html=1;rounded=0;shadow=1;labelBackgroundColor=none;strokeWidth=2;fontFamily=Verdana;fontSize=12;align=center;" vertex="1" parent="1">
          <mxGeometry x="890" y="360" width="70" height="50" as="geometry" />
        </mxCell>
        <mxCell id="kkSLmu_Uq5GEiado8GIk-32" value="e1" style="whiteSpace=wrap;html=1;rounded=0;shadow=1;labelBackgroundColor=none;strokeWidth=2;fontFamily=Verdana;fontSize=12;align=center;" vertex="1" parent="1">
          <mxGeometry x="890" y="430" width="70" height="50" as="geometry" />
        </mxCell>
        <mxCell id="kkSLmu_Uq5GEiado8GIk-33" value="e2" style="whiteSpace=wrap;html=1;rounded=0;shadow=1;labelBackgroundColor=none;strokeWidth=2;fontFamily=Verdana;fontSize=12;align=center;" vertex="1" parent="1">
          <mxGeometry x="890" y="500" width="70" height="50" as="geometry" />
        </mxCell>
        <mxCell id="kkSLmu_Uq5GEiado8GIk-34" value="..." style="whiteSpace=wrap;html=1;rounded=0;shadow=1;labelBackgroundColor=none;strokeWidth=2;fontFamily=Verdana;fontSize=12;align=center;" vertex="1" parent="1">
          <mxGeometry x="890" y="570" width="70" height="50" as="geometry" />
        </mxCell>
        <mxCell id="kkSLmu_Uq5GEiado8GIk-35" value="e18" style="whiteSpace=wrap;html=1;rounded=0;shadow=1;labelBackgroundColor=none;strokeWidth=2;fontFamily=Verdana;fontSize=12;align=center;" vertex="1" parent="1">
          <mxGeometry x="890" y="640" width="70" height="50" as="geometry" />
        </mxCell>
        <mxCell id="kkSLmu_Uq5GEiado8GIk-36" value="trailer" style="whiteSpace=wrap;html=1;rounded=0;shadow=1;labelBackgroundColor=none;strokeWidth=2;fontFamily=Verdana;fontSize=12;align=center;" vertex="1" parent="1">
          <mxGeometry x="1000" y="360" width="70" height="50" as="geometry" />
        </mxCell>
        <mxCell id="kkSLmu_Uq5GEiado8GIk-37" value="e1" style="whiteSpace=wrap;html=1;rounded=0;shadow=1;labelBackgroundColor=none;strokeWidth=2;fontFamily=Verdana;fontSize=12;align=center;" vertex="1" parent="1">
          <mxGeometry x="1000" y="430" width="70" height="50" as="geometry" />
        </mxCell>
        <mxCell id="kkSLmu_Uq5GEiado8GIk-38" value="e2" style="whiteSpace=wrap;html=1;rounded=0;shadow=1;labelBackgroundColor=none;strokeWidth=2;fontFamily=Verdana;fontSize=12;align=center;" vertex="1" parent="1">
          <mxGeometry x="1000" y="500" width="70" height="50" as="geometry" />
        </mxCell>
        <mxCell id="kkSLmu_Uq5GEiado8GIk-39" value="..." style="whiteSpace=wrap;html=1;rounded=0;shadow=1;labelBackgroundColor=none;strokeWidth=2;fontFamily=Verdana;fontSize=12;align=center;" vertex="1" parent="1">
          <mxGeometry x="1000" y="570" width="70" height="50" as="geometry" />
        </mxCell>
        <mxCell id="kkSLmu_Uq5GEiado8GIk-40" value="e18" style="whiteSpace=wrap;html=1;rounded=0;shadow=1;labelBackgroundColor=none;strokeWidth=2;fontFamily=Verdana;fontSize=12;align=center;" vertex="1" parent="1">
          <mxGeometry x="1000" y="640" width="70" height="50" as="geometry" />
        </mxCell>
        <mxCell id="kkSLmu_Uq5GEiado8GIk-44" value="trailer" style="whiteSpace=wrap;html=1;rounded=0;shadow=1;labelBackgroundColor=none;strokeWidth=2;fontFamily=Verdana;fontSize=12;align=center;" vertex="1" parent="1">
          <mxGeometry x="180" y="350" width="70" height="50" as="geometry" />
        </mxCell>
        <mxCell id="kkSLmu_Uq5GEiado8GIk-45" value="e1" style="whiteSpace=wrap;html=1;rounded=0;shadow=1;labelBackgroundColor=none;strokeWidth=2;fontFamily=Verdana;fontSize=12;align=center;" vertex="1" parent="1">
          <mxGeometry x="180" y="420" width="70" height="50" as="geometry" />
        </mxCell>
        <mxCell id="kkSLmu_Uq5GEiado8GIk-46" value="e2" style="whiteSpace=wrap;html=1;rounded=0;shadow=1;labelBackgroundColor=none;strokeWidth=2;fontFamily=Verdana;fontSize=12;align=center;" vertex="1" parent="1">
          <mxGeometry x="180" y="490" width="70" height="50" as="geometry" />
        </mxCell>
        <mxCell id="kkSLmu_Uq5GEiado8GIk-47" value="..." style="whiteSpace=wrap;html=1;rounded=0;shadow=1;labelBackgroundColor=none;strokeWidth=2;fontFamily=Verdana;fontSize=12;align=center;" vertex="1" parent="1">
          <mxGeometry x="180" y="560" width="70" height="50" as="geometry" />
        </mxCell>
        <mxCell id="kkSLmu_Uq5GEiado8GIk-48" value="e18" style="whiteSpace=wrap;html=1;rounded=0;shadow=1;labelBackgroundColor=none;strokeWidth=2;fontFamily=Verdana;fontSize=12;align=center;" vertex="1" parent="1">
          <mxGeometry x="180" y="630" width="70" height="50" as="geometry" />
        </mxCell>
        <mxCell id="kkSLmu_Uq5GEiado8GIk-49" value="trailer" style="whiteSpace=wrap;html=1;rounded=0;shadow=1;labelBackgroundColor=none;strokeWidth=2;fontFamily=Verdana;fontSize=12;align=center;" vertex="1" parent="1">
          <mxGeometry x="290" y="350" width="70" height="50" as="geometry" />
        </mxCell>
        <mxCell id="kkSLmu_Uq5GEiado8GIk-50" value="e1" style="whiteSpace=wrap;html=1;rounded=0;shadow=1;labelBackgroundColor=none;strokeWidth=2;fontFamily=Verdana;fontSize=12;align=center;" vertex="1" parent="1">
          <mxGeometry x="290" y="420" width="70" height="50" as="geometry" />
        </mxCell>
        <mxCell id="kkSLmu_Uq5GEiado8GIk-51" value="e2" style="whiteSpace=wrap;html=1;rounded=0;shadow=1;labelBackgroundColor=none;strokeWidth=2;fontFamily=Verdana;fontSize=12;align=center;" vertex="1" parent="1">
          <mxGeometry x="290" y="490" width="70" height="50" as="geometry" />
        </mxCell>
        <mxCell id="kkSLmu_Uq5GEiado8GIk-52" value="..." style="whiteSpace=wrap;html=1;rounded=0;shadow=1;labelBackgroundColor=none;strokeWidth=2;fontFamily=Verdana;fontSize=12;align=center;" vertex="1" parent="1">
          <mxGeometry x="290" y="560" width="70" height="50" as="geometry" />
        </mxCell>
        <mxCell id="kkSLmu_Uq5GEiado8GIk-53" value="e18" style="whiteSpace=wrap;html=1;rounded=0;shadow=1;labelBackgroundColor=none;strokeWidth=2;fontFamily=Verdana;fontSize=12;align=center;" vertex="1" parent="1">
          <mxGeometry x="290" y="630" width="70" height="50" as="geometry" />
        </mxCell>
        <mxCell id="kkSLmu_Uq5GEiado8GIk-54" value="trailer" style="whiteSpace=wrap;html=1;rounded=0;shadow=1;labelBackgroundColor=none;strokeWidth=2;fontFamily=Verdana;fontSize=12;align=center;" vertex="1" parent="1">
          <mxGeometry x="400" y="350" width="70" height="50" as="geometry" />
        </mxCell>
        <mxCell id="kkSLmu_Uq5GEiado8GIk-55" value="e1" style="whiteSpace=wrap;html=1;rounded=0;shadow=1;labelBackgroundColor=none;strokeWidth=2;fontFamily=Verdana;fontSize=12;align=center;" vertex="1" parent="1">
          <mxGeometry x="400" y="420" width="70" height="50" as="geometry" />
        </mxCell>
        <mxCell id="kkSLmu_Uq5GEiado8GIk-56" value="e2" style="whiteSpace=wrap;html=1;rounded=0;shadow=1;labelBackgroundColor=none;strokeWidth=2;fontFamily=Verdana;fontSize=12;align=center;" vertex="1" parent="1">
          <mxGeometry x="400" y="490" width="70" height="50" as="geometry" />
        </mxCell>
        <mxCell id="kkSLmu_Uq5GEiado8GIk-57" value="..." style="whiteSpace=wrap;html=1;rounded=0;shadow=1;labelBackgroundColor=none;strokeWidth=2;fontFamily=Verdana;fontSize=12;align=center;" vertex="1" parent="1">
          <mxGeometry x="400" y="560" width="70" height="50" as="geometry" />
        </mxCell>
        <mxCell id="kkSLmu_Uq5GEiado8GIk-58" value="e18" style="whiteSpace=wrap;html=1;rounded=0;shadow=1;labelBackgroundColor=none;strokeWidth=2;fontFamily=Verdana;fontSize=12;align=center;" vertex="1" parent="1">
          <mxGeometry x="400" y="630" width="70" height="50" as="geometry" />
        </mxCell>
        <mxCell id="kkSLmu_Uq5GEiado8GIk-67" style="edgeStyle=none;rounded=0;orthogonalLoop=1;jettySize=auto;html=1;exitX=0;exitY=0.25;exitDx=0;exitDy=0;entryX=0;entryY=0.5;entryDx=0;entryDy=0;" edge="1" parent="1" source="kkSLmu_Uq5GEiado8GIk-59" target="kkSLmu_Uq5GEiado8GIk-63">
          <mxGeometry relative="1" as="geometry" />
        </mxCell>
        <mxCell id="kkSLmu_Uq5GEiado8GIk-59" value="trailer" style="whiteSpace=wrap;html=1;rounded=0;shadow=1;labelBackgroundColor=none;strokeWidth=2;fontFamily=Verdana;fontSize=12;align=center;" vertex="1" parent="1">
          <mxGeometry x="510" y="350" width="70" height="50" as="geometry" />
        </mxCell>
        <mxCell id="kkSLmu_Uq5GEiado8GIk-60" value="e1" style="whiteSpace=wrap;html=1;rounded=0;shadow=1;labelBackgroundColor=none;strokeWidth=2;fontFamily=Verdana;fontSize=12;align=center;" vertex="1" parent="1">
          <mxGeometry x="510" y="420" width="70" height="50" as="geometry" />
        </mxCell>
        <mxCell id="kkSLmu_Uq5GEiado8GIk-61" value="e2" style="whiteSpace=wrap;html=1;rounded=0;shadow=1;labelBackgroundColor=none;strokeWidth=2;fontFamily=Verdana;fontSize=12;align=center;" vertex="1" parent="1">
          <mxGeometry x="510" y="490" width="70" height="50" as="geometry" />
        </mxCell>
        <mxCell id="kkSLmu_Uq5GEiado8GIk-62" value="..." style="whiteSpace=wrap;html=1;rounded=0;shadow=1;labelBackgroundColor=none;strokeWidth=2;fontFamily=Verdana;fontSize=12;align=center;" vertex="1" parent="1">
          <mxGeometry x="510" y="560" width="70" height="50" as="geometry" />
        </mxCell>
        <mxCell id="kkSLmu_Uq5GEiado8GIk-63" value="e18" style="whiteSpace=wrap;html=1;rounded=0;shadow=1;labelBackgroundColor=none;strokeWidth=2;fontFamily=Verdana;fontSize=12;align=center;" vertex="1" parent="1">
          <mxGeometry x="510" y="630" width="70" height="50" as="geometry" />
        </mxCell>
      </root>
    </mxGraphModel>
  </diagram>
</mxfile>
